classDiagram
  direction LR
  class AllocationCompany
  class ConsignmentIdentification {
    +string consignmentNumber
    +string previousConsignmentNumber
  }
  class ConsignmentLevelData
  class ConsignmentOrderMessage {
    +dateTime comPreparationDatetime
    +string dossierNumber
    +string versionNumber
  }
  class CoordinatingInfrastructureManager
  class ExceptionalConsignment
  class InfrastructureManager
  class LeadRailwayUndertaking
  class OnDemandPath
  class OperationalTrainIdentifier
  class PathCanceledMessage
  class PathConfirmedMessage
  class PathDetailsMessage
  class PathDetailsRefusedMessage
  class PathInformation
  class PathNotAvailableMessage
  class PathRequestMessage
  class PlannedTrainIdentifier {
    +string operatorCode
    +string plannedTrainNumber
    +date startDate
  }
  class PreArrangedPath
  class RailCustomer {
    +string customerCodeValue
  }
  class RailLocationIdentifier {
    +string locationCode
  }
  class RailwayUndertaking {
    +string companyCode
  }
  class ShipmentType
  class TelematicsDevice
  class TelematicsOnBoard
  class TrainCompositionMessage
  class TrainLocationStatus {
    +dateTime actualArrivalTime
    +dateTime actualDepartureTime
  }
  class TrainRunningData
  class TrainRunningForecastMessage
  class TrainRunningInformationMessage
  class TrainRunningInterruptionMessage
  class TrainRunningTechData
  class TypeOfRequest
  class ValidityPeriod {
    +string bitmapDays
  }
  class WagonAtDeparture {
    +string wagonNumber
  }
  class WagonLocationStatus {
    +dateTime wagonActualTime
  }
  class WagonStatusMessage
  class WagonTelematics
  InfrastructureManager <|-- CoordinatingInfrastructureManager
  RailwayUndertaking <|-- LeadRailwayUndertaking
  ConsignmentLevelData --> ConsignmentIdentification : hasConsignmentIdentification
  ConsignmentLevelData --> ExceptionalConsignment : hasExceptionalConsignment
  ConsignmentLevelData --> ShipmentType : hasShipmentType
  ConsignmentOrderMessage --> ConsignmentLevelData : hasConsignmentLevelData
  ConsignmentOrderMessage --> RailwayUndertaking : receivingRU
  ConsignmentOrderMessage --> RailwayUndertaking : sendingRU
  CoordinatingInfrastructureManager --> InfrastructureManager : coordinatingIMFor
  LeadRailwayUndertaking --> RailwayUndertaking : isLeadRUOf
  PathConfirmedMessage --> InfrastructureManager : confirmedBy
  PathConfirmedMessage --> PathInformation : offersPath
  PathInformation --> ValidityPeriod : pathValidityPeriod
  PathRequestMessage --> PathInformation : hasPathInformation
  PathRequestMessage --> RailwayUndertaking : requestedBy
  PathRequestMessage --> TypeOfRequest : typeOfRequest
  TrainCompositionMessage --> PlannedTrainIdentifier : compositionFor
  TrainCompositionMessage --> WagonAtDeparture : hasWagonAtDeparture
  TrainLocationStatus --> RailLocationIdentifier : atLocation
  TrainRunningData --> TrainRunningTechData : hasRunningTechData
  TrainRunningForecastMessage --> OperationalTrainIdentifier : forecastFor
  TrainRunningInformationMessage --> TrainRunningData : hasRunningData
  TrainRunningInformationMessage --> OperationalTrainIdentifier : reportsTrain
  TrainRunningInterruptionMessage --> OperationalTrainIdentifier : interruptionFor
  WagonAtDeparture --> WagonTelematics : hasWagonTelematics
  WagonLocationStatus --> RailLocationIdentifier : wagonLocation
  WagonStatusMessage --> WagonAtDeparture : reportsWagon
  WagonTelematics --> TelematicsDevice : hasTelematicsDevice
