classDiagram
  direction LR
  class bsp__BillOfLading
  <<bsp>> bsp__BillOfLading
  class bsp__Invoice
  <<bsp>> bsp__Invoice
  class bsp__SalesContract
  <<bsp>> bsp__SalesContract
  class dcsa__Booking
  <<dcsa>> dcsa__Booking
  class dcsa__Container
  <<dcsa>> dcsa__Container
  class dcsa__Event
  <<dcsa>> dcsa__Event
  class dcsa__ServiceLoop
  <<dcsa>> dcsa__ServiceLoop
  class dcsa__TransportDocument
  <<dcsa>> dcsa__TransportDocument
  class imo__BerthStay
  <<imo>> imo__BerthStay
  class imo__DangerousGoodsItem
  <<imo>> imo__DangerousGoodsItem
  class imo__PortCall
  <<imo>> imo__PortCall
  class imo__Vessel
  <<imo>> imo__Vessel
  class mmt__CargoItem
  <<mmt>> mmt__CargoItem
  class mmt__Consignment
  <<mmt>> mmt__Consignment
  class mmt__TransportMovement
  <<mmt>> mmt__TransportMovement
  class mmt__TransportService
  <<mmt>> mmt__TransportService
  class sustainability__CIIRating
  <<sustainability>> sustainability__CIIRating
  class sustainability__CarbonFootprint
  <<sustainability>> sustainability__CarbonFootprint
  class sustainability__EmissionReport
  <<sustainability>> sustainability__EmissionReport
  class sustainability__EnergyConsumption
  <<sustainability>> sustainability__EnergyConsumption
  class tic__Berth
  <<tic>> tic__Berth
  class tic__CargoVisit
  <<tic>> tic__CargoVisit
  class tic__Terminal
  <<tic>> tic__Terminal
  class tic__TerminalEvent
  <<tic>> tic__TerminalEvent
  class wco__CustomsDeclaration
  <<wco>> wco__CustomsDeclaration
  class wco__GoodsItem
  <<wco>> wco__GoodsItem
  bsp__Invoice --> mmt__Consignment : chargesForConsignment
  dcsa__Booking --> mmt__Consignment : bookedConsignment
  dcsa__Booking --> bsp__SalesContract : underAgreement
  dcsa__Container --> tic__CargoVisit : handledAtTerminal
  dcsa__Event --> mmt__Consignment : eventRelatesToConsignment
  dcsa__Event --> imo__Vessel : eventRelatesToVessel
  dcsa__TransportDocument --> bsp__BillOfLading : correspondsToBillOfLading
  imo__BerthStay --> tic__Berth : berthsAt
  imo__PortCall --> tic__Terminal : callsAtTerminal
  imo__Vessel --> sustainability__CIIRating : hasCIIRating
  imo__Vessel --> sustainability__EmissionReport : hasEmissionReport
  mmt__CargoItem --> imo__DangerousGoodsItem : classifiedAsDangerousGoods
  mmt__CargoItem --> wco__GoodsItem : declaredAsGoodsItem
  mmt__Consignment --> sustainability__CarbonFootprint : hasCarbonFootprint
  mmt__Consignment --> bsp__Invoice : invoicedVia
  mmt__Consignment --> wco__CustomsDeclaration : requiresCustomsDeclaration
  mmt__TransportMovement --> sustainability__CarbonFootprint : hasMovementEmission
  mmt__TransportService --> sustainability__EnergyConsumption : hasEnergyConsumption
  mmt__TransportService --> dcsa__ServiceLoop : scheduledVia
  tic__TerminalEvent --> dcsa__Container : eventRelatesToEquipment
