classDiagram
  direction LR
  class Ammonia
  class BunkerDeliveryNote {
    +3 attributes
  }
  class CIIRating {
    +2 attributes
  }
  class CO2Intensity {
    +1 attributes
  }
  class CarbonEmission {
    +2 attributes
  }
  class CarbonFootprint {
    +1 attributes
  }
  class CarbonOffset {
    +2 attributes
  }
  class EEXICompliance {
    +2 attributes
  }
  class EUETSAllowance {
    +2 attributes
  }
  class Electric
  class EmissionFactor {
    +3 attributes
  }
  class EmissionReport {
    +2 attributes
  }
  class EnergyConsumption {
    +2 attributes
  }
  class EnergyEfficiency {
    +2 attributes
  }
  class EnergyPerformanceIndicator {
    +3 attributes
  }
  class EnergySource
  class FuelOilConsumption {
    +1 attributes
  }
  class FuelType {
    +4 attributes
  }
  class HFO
  class Hydrogen
  class LNG
  class Methanol
  class ModalShiftMetric {
    +1 attributes
  }
  class RenewableEnergy
  class Scope1Emission
  class Scope2Emission
  class Scope3Emission
  class Shorepower {
    +2 attributes
  }
  class TankToWake
  class TonneKilometre {
    +1 attributes
  }
  class VLSFO
  class WellToWake
  class imo__BerthStay
  <<imo>> imo__BerthStay
  class imo__BunkeringOperation
  <<imo>> imo__BunkeringOperation
  class imo__MaritimeParty
  <<imo>> imo__MaritimeParty
  class imo__Vessel
  <<imo>> imo__Vessel
  class imo__Voyage
  <<imo>> imo__Voyage
  FuelType <|-- Ammonia
  FuelType <|-- Electric
  EnergyConsumption <|-- FuelOilConsumption
  FuelType <|-- HFO
  FuelType <|-- Hydrogen
  FuelType <|-- LNG
  FuelType <|-- Methanol
  EnergySource <|-- RenewableEnergy
  CarbonEmission <|-- Scope1Emission
  CarbonEmission <|-- Scope2Emission
  CarbonEmission <|-- Scope3Emission
  CarbonEmission <|-- TankToWake
  FuelType <|-- VLSFO
  CarbonEmission <|-- WellToWake
  CarbonEmission --> EmissionFactor : hasEmissionFactor
  CarbonFootprint --> EmissionFactor : calculatedUsing
  EnergyConsumption --> RenewableEnergy : suppliedByRenewable
  EnergyConsumption --> FuelType : usesFuelType
  FuelType --> EnergySource : hasEnergySource
  imo__BerthStay --> Shorepower : hasShorepower
  imo__BunkeringOperation --> BunkerDeliveryNote : hasBunkerDeliveryNote
  imo__MaritimeParty --> CarbonOffset : hasCarbonOffset
  imo__Vessel --> CIIRating : hasCIIRating
  imo__Vessel --> CO2Intensity : hasCO2Intensity
  imo__Vessel --> EEXICompliance : hasEEXICompliance
  imo__Vessel --> EUETSAllowance : hasEUETSAllowance
  imo__Vessel --> EmissionReport : hasEmissionReport
  imo__Vessel --> EnergyConsumption : hasEnergyConsumption
  imo__Vessel --> EnergyEfficiency : hasEnergyEfficiency
  imo__Vessel --> EnergyPerformanceIndicator : hasEnergyPerformanceIndicator
  imo__Vessel --> FuelOilConsumption : hasFuelOilConsumption
  imo__Voyage --> CO2Intensity : hasCO2Intensity
  imo__Voyage --> CarbonFootprint : hasCarbonFootprint
  imo__Voyage --> EnergyConsumption : hasEnergyConsumption
  imo__Voyage --> EnergyPerformanceIndicator : hasEnergyPerformanceIndicator
  imo__Voyage --> FuelOilConsumption : hasFuelOilConsumption
  imo__Voyage --> ModalShiftMetric : hasModalShiftMetric
